<?xml version="1.0"?>
<svg xmlns="http://www.w3.org/2000/svg" xmlns:xlink="http://www.w3.org/1999/xlink" version="1.1" id="Capa_1" x="0px" y="0px" viewBox="0 0 438.857 438.857" style="enable-background:new 0 0 438.857 438.857;" xml:space="preserve" width="512px" height="512px" class="hovered-paths"><g><g>
	<circle style="fill:#D4E1F4;" cx="219.429" cy="240.327" r="20.898" data-original="#D4E1F4"/>
	<circle style="fill:#D4E1F4;" cx="219.429" cy="161.959" r="20.898" data-original="#D4E1F4"/>
	<circle style="fill:#D4E1F4;" cx="219.429" cy="83.592" r="20.898" data-original="#D4E1F4"/>
</g><path style="fill:#FB5252" d="M291.004,87.249v146.808c0,39.706-31.869,72.098-71.576,72.098s-71.576-31.869-71.576-71.576V87.249  c0-39.706,31.869-71.576,71.576-71.576c19.853,0,37.616,7.837,50.678,20.898S291.004,67.396,291.004,87.249z M240.327,83.592  c0-11.494-9.404-20.898-20.898-20.898s-20.898,9.404-20.898,20.898s9.404,20.898,20.898,20.898S240.327,95.086,240.327,83.592z   M240.327,161.959c0-11.494-9.404-20.898-20.898-20.898s-20.898,9.404-20.898,20.898s9.404,20.898,20.898,20.898  S240.327,173.453,240.327,161.959z M240.327,240.327c0-11.494-9.404-20.898-20.898-20.898s-20.898,9.404-20.898,20.898  s9.404,20.898,20.898,20.898S240.327,251.82,240.327,240.327z" data-original="#4DCFE0" class="active-path" data-old_color="#4DCFE0"/><g>
	<path style="fill:#3A2C51" d="M219.429,321.829c-48.065,0-87.249-39.184-87.249-87.249V87.249C132.18,39.184,171.363,0,219.429,0   c23.51,0,45.453,8.882,61.649,25.6c16.196,16.196,25.6,38.139,25.6,61.649v146.808   C306.678,282.645,267.494,321.829,219.429,321.829z M219.429,31.347c-30.824,0-55.902,25.078-55.902,55.902V234.58   c0,30.824,25.078,55.902,55.902,55.902s55.902-25.078,55.902-56.424V87.249c0-15.151-5.747-29.257-16.196-39.706   C248.686,37.094,234.58,31.347,219.429,31.347z" data-original="#3A2C51" class="hovered-path"/>
	<path style="fill:#3A2C51" d="M345.861,159.869c-8.882,0-15.673,6.792-15.673,15.673v59.037   c0,61.127-49.633,110.759-110.759,110.759c-29.78,0-57.992-12.016-78.367-32.392c-20.898-20.898-32.392-48.588-32.392-78.367   v-59.037c0-8.882-6.792-15.673-15.673-15.673s-15.673,6.792-15.673,15.673v59.037c0,37.616,14.629,73.665,41.796,100.31   c22.465,22.988,52.767,37.094,84.637,40.751v31.869h-46.498c-8.882,0-15.673,6.792-15.673,15.673   c0,8.882,6.792,15.673,15.673,15.673H281.6c8.882,0,15.673-6.792,15.673-15.673c0-8.882-6.792-15.673-15.673-15.673h-46.498   v-31.869c71.053-7.837,126.433-67.918,126.433-141.061v-59.037C361.535,166.661,354.743,159.869,345.861,159.869z" data-original="#3A2C51" class="hovered-path"/>
	<path style="fill:#3A2C51" d="M219.429,120.163c-20.376,0-36.571-16.196-36.571-36.571s16.196-36.571,36.571-36.571   S256,63.216,256,83.592S239.804,120.163,219.429,120.163z M219.429,78.367c-3.135,0-5.224,2.09-5.224,5.224s2.09,5.224,5.224,5.224   s5.224-2.09,5.224-5.224S222.563,78.367,219.429,78.367z" data-original="#3A2C51" class="hovered-path"/>
	<path style="fill:#3A2C51" d="M219.429,198.531c-20.376,0-36.571-16.196-36.571-36.571s16.196-36.571,36.571-36.571   S256,141.584,256,161.959S239.804,198.531,219.429,198.531z M219.429,156.735c-3.135,0-5.224,2.09-5.224,5.224   s2.09,5.224,5.224,5.224s5.224-2.09,5.224-5.224S222.563,156.735,219.429,156.735z" data-original="#3A2C51" class="hovered-path"/>
	<path style="fill:#3A2C51" d="M219.429,276.898c-20.376,0-36.571-16.196-36.571-36.571s16.196-36.571,36.571-36.571   S256,219.951,256,240.327S239.804,276.898,219.429,276.898z M219.429,235.102c-3.135,0-5.224,2.09-5.224,5.224   s2.09,5.224,5.224,5.224s5.224-2.09,5.224-5.224S222.563,235.102,219.429,235.102z" data-original="#3A2C51" class="hovered-path"/>
</g></g> </svg>
