<?xml version="1.0"?>
<svg xmlns="http://www.w3.org/2000/svg" xmlns:xlink="http://www.w3.org/1999/xlink" version="1.1" id="Layer_1" x="0px" y="0px" viewBox="0 0 481.882 481.882" style="enable-background:new 0 0 481.882 481.882;" xml:space="preserve" width="512px" height="512px" class=""><g><path style="fill:#7C98AE" d="M472.245,115.049H9.638c-5.421,0-9.638,4.216-9.638,9.638v232.508c0,5.421,4.216,9.638,9.638,9.638  h462.607c5.421,0,9.638-4.216,9.638-9.638V124.687C481.882,119.266,477.666,115.049,472.245,115.049z" data-original="#D5D6DB" class="" data-old_color="#D5D6DB"/><g>
	<path style="fill:#232D3A" d="M43.972,162.635H15.661c-0.602,0-1.807,0.602-1.807,1.807v12.047c0,0.602,1.205,1.205,1.807,1.205   h28.311c0.602,0,1.807-0.602,1.807-1.807V163.84C45.176,163.238,44.574,162.635,43.972,162.635z" data-original="#64798A" class="active-path" data-old_color="#64798A"/>
	<path style="fill:#232D3A" d="M86.136,162.635H57.826c-0.602,0-1.807,0.602-1.807,1.807v12.047c0,0.602,0.602,1.807,1.807,1.807   h28.311c0.602,0,1.807-0.602,1.807-1.807v-12.047C87.944,163.238,86.739,162.635,86.136,162.635z" data-original="#64798A" class="active-path" data-old_color="#64798A"/>
	<path style="fill:#232D3A" d="M128.301,162.635H99.991c-0.602,0-1.807,0.602-1.807,1.807v12.047c0,0.602,0.602,1.807,1.807,1.807   h28.311c0.602,0,1.807-0.602,1.807-1.807v-12.047C130.108,163.238,129.506,162.635,128.301,162.635z" data-original="#64798A" class="active-path" data-old_color="#64798A"/>
	<path style="fill:#232D3A" d="M170.466,162.635h-28.311c-0.602,0-1.807,0.602-1.807,1.807v12.047c0,0.602,0.602,1.807,1.807,1.807   h28.311c0.602,0,1.807-0.602,1.807-1.807v-12.047C172.273,163.238,171.671,162.635,170.466,162.635z" data-original="#64798A" class="active-path" data-old_color="#64798A"/>
	<path style="fill:#232D3A" d="M212.631,162.635H184.32c-0.602,0-1.807,0.602-1.807,1.807v12.047c0,0.602,0.602,1.807,1.807,1.807   h28.311c0.602,0,1.807-0.602,1.807-1.807v-12.047C214.438,163.238,213.835,162.635,212.631,162.635z" data-original="#64798A" class="active-path" data-old_color="#64798A"/>
	<path style="fill:#232D3A" d="M254.795,162.635h-28.311c-0.602,0-1.807,0.602-1.807,1.807v12.047c0,0.602,0.602,1.807,1.807,1.807   h28.311c0.602,0,1.807-0.602,1.807-1.807v-12.047C256.602,163.238,256,162.635,254.795,162.635z" data-original="#64798A" class="active-path" data-old_color="#64798A"/>
	<path style="fill:#232D3A" d="M296.96,162.635h-28.311c-0.602,0-1.807,0.602-1.807,1.807v12.047c0,0.602,0.602,1.807,1.807,1.807   h28.311c0.602,0,1.807-0.602,1.807-1.807v-12.047C298.767,163.238,298.165,162.635,296.96,162.635z" data-original="#64798A" class="active-path" data-old_color="#64798A"/>
	<path style="fill:#232D3A" d="M339.727,162.635h-28.311c-0.602,0-1.807,0.602-1.807,1.807v12.047c0,0.602,0.602,1.807,1.807,1.807   h28.311c0.602,0,1.807-0.602,1.807-1.807v-12.047C340.932,163.238,340.329,162.635,339.727,162.635z" data-original="#64798A" class="active-path" data-old_color="#64798A"/>
	<path style="fill:#232D3A" d="M381.892,162.635h-28.311c-0.602,0-1.807,0.602-1.807,1.807v12.047c0,0.602,0.602,1.807,1.807,1.807   h28.311c0.602,0,1.807-0.602,1.807-1.807v-12.047C383.096,163.238,382.494,162.635,381.892,162.635z" data-original="#64798A" class="active-path" data-old_color="#64798A"/>
	<path style="fill:#232D3A" d="M424.056,162.635h-28.311c-0.602,0-1.807,0.602-1.807,1.807v12.047c0,0.602,0.602,1.807,1.807,1.807   h28.311c0.602,0,1.807-0.602,1.807-1.807v-12.047C425.261,163.238,424.659,162.635,424.056,162.635z" data-original="#64798A" class="active-path" data-old_color="#64798A"/>
	<path style="fill:#232D3A" d="M466.221,162.635h-28.311c-0.602,0-1.807,0.602-1.807,1.807v12.047c0,0.602,0.602,1.807,1.807,1.807   h28.311c0.602,0,1.807-0.602,1.807-1.807v-12.047C468.028,163.238,466.824,162.635,466.221,162.635z" data-original="#64798A" class="active-path" data-old_color="#64798A"/>
	<path style="fill:#232D3A" d="M45.176,193.355H15.661c-1.205,0-1.807,0.602-1.807,1.807v24.696c0,0.602,0.602,1.807,1.807,1.807   h29.515c1.205,0,1.807-0.602,1.807-1.807v-24.696C46.984,194.56,46.381,193.355,45.176,193.355z" data-original="#64798A" class="active-path" data-old_color="#64798A"/>
	<path style="fill:#232D3A" d="M89.148,193.355H59.633c-1.205,0-1.807,0.602-1.807,1.807v24.696c0,0.602,0.602,1.807,1.807,1.807   h29.515c1.205,0,1.807-0.602,1.807-1.807v-24.696C90.955,194.56,90.353,193.355,89.148,193.355z" data-original="#64798A" class="active-path" data-old_color="#64798A"/>
	<path style="fill:#232D3A" d="M133.722,193.355h-29.515c-1.205,0-1.807,0.602-1.807,1.807v24.696c0,0.602,0.602,1.807,1.807,1.807   h29.515c1.205,0,1.807-0.602,1.807-1.807v-24.696C135.529,194.56,134.325,193.355,133.722,193.355z" data-original="#64798A" class="active-path" data-old_color="#64798A"/>
	<path style="fill:#232D3A" d="M177.694,193.355h-29.515c-1.205,0-1.807,0.602-1.807,1.807v24.696c0,0.602,0.602,1.807,1.807,1.807   h29.515c1.205,0,1.807-0.602,1.807-1.807v-24.696C179.501,194.56,178.899,193.355,177.694,193.355z" data-original="#64798A" class="active-path" data-old_color="#64798A"/>
	<path style="fill:#232D3A" d="M221.666,193.355h-29.515c-1.205,0-1.807,0.602-1.807,1.807v24.696c0,0.602,0.602,1.807,1.807,1.807   h29.515c1.205,0,1.807-0.602,1.807-1.807v-24.696C223.473,194.56,222.871,193.355,221.666,193.355z" data-original="#64798A" class="active-path" data-old_color="#64798A"/>
	<path style="fill:#232D3A" d="M266.24,193.355h-29.515c-1.205,0-1.807,0.602-1.807,1.807v24.696c0,0.602,0.602,1.807,1.807,1.807   h29.515c1.205,0,1.807-0.602,1.807-1.807v-24.696C268.047,194.56,266.842,193.355,266.24,193.355z" data-original="#64798A" class="active-path" data-old_color="#64798A"/>
	<path style="fill:#232D3A" d="M310.212,193.355h-29.515c-1.205,0-1.807,0.602-1.807,1.807v24.696c0,0.602,0.602,1.807,1.807,1.807   h29.515c1.205,0,1.807-0.602,1.807-1.807v-24.696C312.019,194.56,311.416,193.355,310.212,193.355z" data-original="#64798A" class="active-path" data-old_color="#64798A"/>
	<path style="fill:#232D3A" d="M354.786,193.355h-29.515c-1.205,0-1.807,0.602-1.807,1.807v24.696c0,0.602,0.602,1.807,1.807,1.807   h29.515c1.205,0,1.807-0.602,1.807-1.807v-24.696C355.991,194.56,355.388,193.355,354.786,193.355z" data-original="#64798A" class="active-path" data-old_color="#64798A"/>
	<path style="fill:#232D3A" d="M398.758,193.355h-29.515c-1.205,0-1.807,0.602-1.807,1.807v24.696c0,0.602,0.602,1.807,1.807,1.807   h29.515c1.205,0,1.807-0.602,1.807-1.807v-24.696C400.565,194.56,399.36,193.355,398.758,193.355z" data-original="#64798A" class="active-path" data-old_color="#64798A"/>
	<path style="fill:#232D3A" d="M466.221,193.355h-54.212c-0.602,0-1.807,0.602-1.807,1.807v24.696c0,0.602,0.602,1.807,1.807,1.807   h54.212c0.602,0,1.807-0.602,1.807-1.807v-24.696C468.028,194.56,466.824,193.355,466.221,193.355z" data-original="#64798A" class="active-path" data-old_color="#64798A"/>
	<path style="fill:#232D3A" d="M45.176,313.224H15.661c-1.205,0-1.807,0.602-1.807,1.807v32.527c0,0.602,0.602,1.807,1.807,1.807   h29.515c1.205,0,1.807-0.602,1.807-1.807v-32.527C46.984,313.826,46.381,313.224,45.176,313.224z" data-original="#64798A" class="active-path" data-old_color="#64798A"/>
	<path style="fill:#232D3A" d="M89.148,313.224H59.633c-1.205,0-1.807,0.602-1.807,1.807v32.527c0,0.602,0.602,1.807,1.807,1.807   h29.515c1.205,0,1.807-0.602,1.807-1.807v-32.527C90.955,313.826,90.353,313.224,89.148,313.224z" data-original="#64798A" class="active-path" data-old_color="#64798A"/>
	<path style="fill:#232D3A" d="M266.24,313.224H104.207c-1.205,0-1.807,0.602-1.807,1.807v32.527c0,0.602,0.602,1.807,1.807,1.807   H266.24c1.205,0,1.807-0.602,1.807-1.807v-32.527C268.047,313.826,266.842,313.224,266.24,313.224z" data-original="#64798A" class="active-path" data-old_color="#64798A"/>
	<path style="fill:#232D3A" d="M310.212,313.224h-29.515c-1.205,0-1.807,0.602-1.807,1.807v32.527c0,0.602,0.602,1.807,1.807,1.807   h29.515c1.205,0,1.807-0.602,1.807-1.807v-32.527C312.019,313.826,311.416,313.224,310.212,313.224z" data-original="#64798A" class="active-path" data-old_color="#64798A"/>
	<path style="fill:#232D3A" d="M350.569,313.224h-29.515c-1.205,0-1.807,0.602-1.807,1.807v32.527c0,0.602,0.602,1.807,1.807,1.807   h29.515c1.205,0,1.807-0.602,1.807-1.807v-32.527C352.376,313.826,351.774,313.224,350.569,313.224z" data-original="#64798A" class="active-path" data-old_color="#64798A"/>
	<path style="fill:#232D3A" d="M389.722,333.101h-29.515c-1.205,0-1.807,0.602-1.807,1.807v12.649c0,0.602,0.602,1.807,1.807,1.807   h29.515c1.205,0,1.807-0.602,1.807-1.807v-12.649C391.529,334.306,390.927,333.101,389.722,333.101z" data-original="#64798A" class="active-path" data-old_color="#64798A"/>
	<path style="fill:#232D3A" d="M466.221,333.101h-29.515c-1.205,0-1.807,0.602-1.807,1.807v12.649c0,0.602,0.602,1.807,1.807,1.807   h29.515c1.205,0,1.807-0.602,1.807-1.807v-12.649C468.028,334.306,466.824,333.101,466.221,333.101z" data-original="#64798A" class="active-path" data-old_color="#64798A"/>
	<path style="fill:#232D3A" d="M427.671,333.101h-29.515c-1.205,0-1.807,0.602-1.807,1.807v12.649c0,0.602,0.602,1.807,1.807,1.807   h29.515c1.205,0,1.807-0.602,1.807-1.807v-12.649C428.875,334.306,428.273,333.101,427.671,333.101z" data-original="#64798A" class="active-path" data-old_color="#64798A"/>
	<path style="fill:#232D3A" d="M427.671,315.031h-29.515c-1.205,0-1.807,0.602-1.807,1.807v12.649c0,0.602,0.602,1.807,1.807,1.807   h29.515c1.205,0,1.807-0.602,1.807-1.807v-13.252C428.875,315.633,428.273,315.031,427.671,315.031z" data-original="#64798A" class="active-path" data-old_color="#64798A"/>
	<path style="fill:#232D3A" d="M436.706,262.024h29.515c1.205,0,1.807-0.602,1.807-1.807V235.52c0-0.602-0.602-1.807-1.807-1.807   h-29.515c-1.205,0-1.807,0.602-1.807,1.807v24.696C434.899,260.819,435.501,262.024,436.706,262.024z" data-original="#64798A" class="active-path" data-old_color="#64798A"/>
	<path style="fill:#232D3A" d="M392.734,262.024h29.515c1.205,0,1.807-0.602,1.807-1.807V235.52c0-0.602-0.602-1.807-1.807-1.807   h-29.515c-1.205,0-1.807,0.602-1.807,1.807v24.696C390.927,260.819,391.529,262.024,392.734,262.024z" data-original="#64798A" class="active-path" data-old_color="#64798A"/>
	<path style="fill:#232D3A" d="M348.16,262.024h29.515c1.205,0,1.807-0.602,1.807-1.807V235.52c0-0.602-0.602-1.807-1.807-1.807   H348.16c-1.205,0-1.807,0.602-1.807,1.807v24.696C346.353,260.819,347.558,262.024,348.16,262.024z" data-original="#64798A" class="active-path" data-old_color="#64798A"/>
	<path style="fill:#232D3A" d="M304.188,262.024h29.515c1.205,0,1.807-0.602,1.807-1.807V235.52c0-0.602-0.602-1.807-1.807-1.807   h-29.515c-1.205,0-1.807,0.602-1.807,1.807v24.696C302.381,260.819,302.984,262.024,304.188,262.024z" data-original="#64798A" class="active-path" data-old_color="#64798A"/>
	<path style="fill:#232D3A" d="M260.216,262.024h29.515c1.205,0,1.807-0.602,1.807-1.807V235.52c0-0.602-0.602-1.807-1.807-1.807   h-29.515c-1.205,0-1.807,0.602-1.807,1.807v24.696C258.409,260.819,259.012,262.024,260.216,262.024z" data-original="#64798A" class="active-path" data-old_color="#64798A"/>
	<path style="fill:#232D3A" d="M215.642,262.024h29.515c1.205,0,1.807-0.602,1.807-1.807V235.52c0-0.602-0.602-1.807-1.807-1.807   h-29.515c-1.205,0-1.807,0.602-1.807,1.807v24.696C213.835,260.819,215.04,262.024,215.642,262.024z" data-original="#64798A" class="active-path" data-old_color="#64798A"/>
	<path style="fill:#232D3A" d="M171.671,262.024h29.515c1.205,0,1.807-0.602,1.807-1.807V235.52c0-0.602-0.602-1.807-1.807-1.807   h-29.515c-1.205,0-1.807,0.602-1.807,1.807v24.696C169.864,260.819,170.466,262.024,171.671,262.024z" data-original="#64798A" class="active-path" data-old_color="#64798A"/>
	<path style="fill:#232D3A" d="M127.096,262.024h29.515c1.205,0,1.807-0.602,1.807-1.807V235.52c0-0.602-0.602-1.807-1.807-1.807   h-29.515c-1.205,0-1.807,0.602-1.807,1.807v24.696C125.892,260.819,126.494,262.024,127.096,262.024z" data-original="#64798A" class="active-path" data-old_color="#64798A"/>
	<path style="fill:#232D3A" d="M83.125,262.024h29.515c1.205,0,1.807-0.602,1.807-1.807V235.52c0-0.602-0.602-1.807-1.807-1.807   H83.125c-1.205,0-1.807,0.602-1.807,1.807v24.696C81.318,260.819,82.522,262.024,83.125,262.024z" data-original="#64798A" class="active-path" data-old_color="#64798A"/>
	<path style="fill:#232D3A" d="M15.661,262.024h54.212c0.602,0,1.807-0.602,1.807-1.807V235.52c0-0.602-0.602-1.807-1.807-1.807   H15.661c-0.602,0-1.807,0.602-1.807,1.807v24.696C13.854,260.819,15.059,262.024,15.661,262.024z" data-original="#64798A" class="active-path" data-old_color="#64798A"/>
	<path style="fill:#232D3A" d="M365.026,301.779h29.515c1.205,0,1.807-0.602,1.807-1.807v-24.696c0-0.602-0.602-1.807-1.807-1.807   h-29.515c-1.205,0-1.807,0.602-1.807,1.807v24.696C363.821,301.176,364.424,301.779,365.026,301.779z" data-original="#64798A" class="active-path" data-old_color="#64798A"/>
	<path style="fill:#232D3A" d="M321.054,301.779h29.515c1.205,0,1.807-0.602,1.807-1.807v-24.696c0-0.602-0.602-1.807-1.807-1.807   h-29.515c-1.205,0-1.807,0.602-1.807,1.807v24.696C319.247,301.176,319.849,301.779,321.054,301.779z" data-original="#64798A" class="active-path" data-old_color="#64798A"/>
	<path style="fill:#232D3A" d="M277.082,301.779h29.515c1.205,0,1.807-0.602,1.807-1.807v-24.696c0-0.602-0.602-1.807-1.807-1.807   h-29.515c-1.205,0-1.807,0.602-1.807,1.807v24.696C275.275,301.176,275.878,301.779,277.082,301.779z" data-original="#64798A" class="active-path" data-old_color="#64798A"/>
	<path style="fill:#232D3A" d="M232.508,301.779h29.515c1.205,0,1.807-0.602,1.807-1.807v-24.696c0-0.602-0.602-1.807-1.807-1.807   h-29.515c-1.205,0-1.807,0.602-1.807,1.807v24.696C231.304,301.176,231.906,301.779,232.508,301.779z" data-original="#64798A" class="active-path" data-old_color="#64798A"/>
	<path style="fill:#232D3A" d="M188.536,301.779h29.515c1.205,0,1.807-0.602,1.807-1.807v-24.696c0-0.602-0.602-1.807-1.807-1.807   h-29.515c-1.205,0-1.807,0.602-1.807,1.807v24.696C186.729,301.176,187.332,301.779,188.536,301.779z" data-original="#64798A" class="active-path" data-old_color="#64798A"/>
	<path style="fill:#232D3A" d="M144.565,301.779h29.515c1.205,0,1.807-0.602,1.807-1.807v-24.696c0-0.602-0.602-1.807-1.807-1.807   h-29.515c-1.205,0-1.807,0.602-1.807,1.807v24.696C142.758,301.176,143.36,301.779,144.565,301.779z" data-original="#64798A" class="active-path" data-old_color="#64798A"/>
	<path style="fill:#232D3A" d="M99.991,301.779h29.515c1.205,0,1.807-0.602,1.807-1.807v-24.696c0-0.602-0.602-1.807-1.807-1.807   H99.991c-1.205,0-1.807,0.602-1.807,1.807v24.696C98.786,301.176,99.388,301.779,99.991,301.779z" data-original="#64798A" class="active-path" data-old_color="#64798A"/>
	<path style="fill:#232D3A" d="M15.661,301.779h71.68c0.602,0,1.807-0.602,1.807-1.807v-24.696c0-0.602-0.602-1.807-1.807-1.807   h-71.68c-0.602,0-1.807,0.602-1.807,1.807v24.696C13.854,301.176,15.059,301.779,15.661,301.779z" data-original="#64798A" class="active-path" data-old_color="#64798A"/>
	<path style="fill:#232D3A" d="M412.009,301.779h54.212c0.602,0,1.807-0.602,1.807-1.807v-24.696c0-0.602-0.602-1.807-1.807-1.807   h-54.212c-0.602,0-1.807,0.602-1.807,1.807v24.696C410.202,301.176,410.805,301.779,412.009,301.779z" data-original="#64798A" class="active-path" data-old_color="#64798A"/>
</g></g> </svg>
